<?xml version="1.0" encoding="utf-8"?><svg xmlns="http://www.w3.org/2000/svg" xmlns:xlink="http://www.w3.org/1999/xlink"><symbol fill="none" viewBox="0 0 40 40" id="vk"><g filter="url(#afilter0_i_230_309)"><circle cx="20" cy="20" r="20" fill="url(#apaint0_linear_230_309)"/></g><path d="M21.072 27C12.872 27 8.195 21.745 8 13h4.107c.135 6.418 3.163 9.137 5.562 9.698V13h3.868v5.535c2.368-.238 4.856-2.76 5.696-5.535H31.1c-.644 3.42-3.343 5.942-5.261 6.979C27.758 20.819 30.83 23.02 32 27h-4.258c-.914-2.663-3.192-4.723-6.205-5.003V27h-.465z" fill="#fff"/><defs><linearGradient id="apaint0_linear_230_309" x1="20" y1="0" x2="20" y2="40" gradientUnits="userSpaceOnUse"><stop stop-color="#59B4FA"/><stop offset="1" stop-color="#2F89CE"/></linearGradient><filter id="afilter0_i_230_309" x="0" y="0" width="40" height="44" filterUnits="userSpaceOnUse" color-interpolation-filters="sRGB"><feFlood flood-opacity="0" result="BackgroundImageFix"/><feBlend in="SourceGraphic" in2="BackgroundImageFix" result="shape"/><feColorMatrix in="SourceAlpha" values="0 0 0 0 0 0 0 0 0 0 0 0 0 0 0 0 0 0 127 0" result="hardAlpha"/><feOffset dy="4"/><feGaussianBlur stdDeviation="7"/><feComposite in2="hardAlpha" operator="arithmetic" k2="-1" k3="1"/><feColorMatrix values="0 0 0 0 0.508333 0 0 0 0 0.786635 0 0 0 0 1 0 0 0 0.7 0"/><feBlend in2="shape" result="effect1_innerShadow_230_309"/></filter></defs></symbol><symbol fill="none" viewBox="0 0 40 40" id="youtube"><g filter="url(#bfilter0_i_230_313)"><circle cx="20" cy="20" r="20" fill="url(#bpaint0_linear_230_313)"/></g><rect x="10" y="13" width="19.688" height="14" rx="3" fill="#fff"/><path d="M22.469 20l-5.25 3.026v-6.088L22.469 20z" fill="#FF0D0D"/><defs><linearGradient id="bpaint0_linear_230_313" x1="20" y1="0" x2="20" y2="40" gradientUnits="userSpaceOnUse"><stop stop-color="#FF2C2C"/><stop offset="1" stop-color="red"/></linearGradient><filter id="bfilter0_i_230_313" x="0" y="0" width="40" height="44" filterUnits="userSpaceOnUse" color-interpolation-filters="sRGB"><feFlood flood-opacity="0" result="BackgroundImageFix"/><feBlend in="SourceGraphic" in2="BackgroundImageFix" result="shape"/><feColorMatrix in="SourceAlpha" values="0 0 0 0 0 0 0 0 0 0 0 0 0 0 0 0 0 0 127 0" result="hardAlpha"/><feOffset dy="4"/><feGaussianBlur stdDeviation="7"/><feComposite in2="hardAlpha" operator="arithmetic" k2="-1" k3="1"/><feColorMatrix values="0 0 0 0 1 0 0 0 0 0.508333 0 0 0 0 0.508333 0 0 0 0.7 0"/><feBlend in2="shape" result="effect1_innerShadow_230_313"/></filter></defs></symbol></svg>