<svg width="128" height="40" viewBox="0 0 128 40" fill="none" xmlns="http://www.w3.org/2000/svg">
<path d="M127.988 3.1535C128.073 2.60776 127.699 2.09663 127.154 2.01185L118.26 0.630361C117.714 0.545586 117.203 0.919272 117.119 1.46501C117.034 2.01075 117.407 2.52188 117.953 2.60666L125.858 3.83465L124.63 11.7398C124.546 12.2856 124.919 12.7967 125.465 12.8815C126.011 12.9663 126.522 12.5926 126.607 12.0468L127.988 3.1535ZM0.559113 3.33848C5.1088 15.9765 11.587 25.1331 19.7509 31.0218C27.9219 36.9155 37.6976 39.4748 48.7249 39.0617C70.7188 38.2378 97.7957 25.5898 127.59 3.80727L126.41 2.19273C96.7043 23.9102 70.0312 36.2621 48.6501 37.0631C37.9899 37.4624 28.6718 34.9904 20.9209 29.3997C13.163 23.8039 6.8912 15.023 2.44089 2.66104L0.559113 3.33848Z" fill="white" fill-opacity="0.2"/>
</svg>
