<svg width="15" height="20" viewBox="0 0 15 20" fill="none" xmlns="http://www.w3.org/2000/svg">
<path d="M11.2924 0H1.2263C0.550549 0 0 0.550761 0 1.22652V18.7733C0 19.4501 0.550506 20 1.2263 20H13.5563C14.2328 20 14.7827 19.4501 14.7827 18.7733V3.79247L11.2924 0ZM11.5818 1.83533L13.1116 3.49799H11.5818V1.83533ZM13.7528 18.7734C13.7528 18.8814 13.6643 18.9701 13.5558 18.9701H1.2263C1.11789 18.9701 1.02995 18.8814 1.02995 18.7734V1.22652C1.02995 1.11823 1.11789 1.03046 1.2263 1.03046H10.5513V4.01318C10.5513 4.29716 10.7827 4.52739 11.0668 4.52739H13.7527V18.7734H13.7528ZM2.99534 6.84459L1.9205 2.60841H2.70128L3.19802 4.72472C3.26797 5.02026 3.33529 5.31993 3.39318 5.59665C3.45927 5.31266 3.53874 5.01125 3.61724 4.71592L4.17493 2.60863H4.89161L5.4003 4.73062C5.46626 5.0076 5.5318 5.29345 5.58709 5.56966C5.644 5.32384 5.70707 5.07165 5.77188 4.81188L5.79576 4.71766L6.3478 2.60888H7.11264L5.91209 6.84501H5.19664L4.66985 4.67014C4.60478 4.40286 4.54787 4.15793 4.50091 3.91819C4.446 4.15695 4.38195 4.40125 4.30358 4.67444L3.7101 6.84501H2.99529V6.84459H2.99534ZM7.7022 5.94422H12.3113C12.5243 5.94422 12.6971 6.11715 12.6971 6.33008C12.6971 6.54309 12.5243 6.71594 12.3113 6.71594H7.7022C7.48919 6.71594 7.31634 6.54309 7.31634 6.33008C7.31638 6.11719 7.48923 5.94422 7.7022 5.94422ZM12.6972 8.90662C12.6972 9.11963 12.5244 9.29248 12.3113 9.29248H2.71823C2.50522 9.29248 2.33237 9.11963 2.33237 8.90662C2.33237 8.69356 2.50518 8.52076 2.71823 8.52076H12.3113C12.5243 8.52076 12.6972 8.69361 12.6972 8.90662ZM12.6972 11.1896C12.6972 11.4026 12.5244 11.5755 12.3113 11.5755H2.71823C2.50522 11.5755 2.33237 11.4026 2.33237 11.1896C2.33237 10.9766 2.50518 10.8037 2.71823 10.8037H12.3113C12.5243 10.8037 12.6972 10.9766 12.6972 11.1896ZM12.6972 13.4726C12.6972 13.6856 12.5244 13.8585 12.3113 13.8585H2.71823C2.50522 13.8585 2.33237 13.6856 2.33237 13.4726C2.33237 13.2596 2.50518 13.0867 2.71823 13.0867H12.3113C12.5243 13.0867 12.6972 13.2596 12.6972 13.4726ZM12.6972 15.7878C12.6972 16.0008 12.5244 16.1736 12.3113 16.1736H2.71823C2.50522 16.1736 2.33237 16.0008 2.33237 15.7878C2.33237 15.5747 2.50518 15.4019 2.71823 15.4019H12.3113C12.5243 15.4019 12.6972 15.5747 12.6972 15.7878Z" fill="#393939"/>
</svg>
