<svg width="40" height="40" viewBox="0 0 40 40" fill="none" xmlns="http://www.w3.org/2000/svg">
<path d="M23.5678 20L39.7385 3.83035C40.0866 3.48187 40.0866 2.91722 39.7385 2.56874L37.4323 0.261256C37.265 0.0943893 37.0374 0 36.801 0C36.5642 0 36.3371 0.0943893 36.1698 0.261256L19.9995 16.4313L3.82924 0.261256C3.49424 -0.0737416 2.90135 -0.0733203 2.56719 0.261256L0.261365 2.56874C-0.0871216 2.91722 -0.0871216 3.48187 0.261365 3.83035L16.4316 20L0.261365 36.1696C-0.0871216 36.5181 -0.0871216 37.0828 0.261365 37.4313L2.56761 39.7387C2.7349 39.9056 2.96203 40 3.19885 40C3.43567 40 3.66237 39.9056 3.82967 39.7387L19.9999 23.5687L36.1702 39.7387C36.3375 39.9056 36.5651 40 36.8015 40C37.0379 40 37.2654 39.9056 37.4327 39.7387L39.739 37.4313C40.087 37.0828 40.087 36.5181 39.739 36.1696L23.5678 20Z" fill="white"/>
</svg>
