<svg width="28" height="17" viewBox="0 0 28 17" fill="none" xmlns="http://www.w3.org/2000/svg">
<path d="M18.614 0.20771C18.337 0.484652 18.337 0.93232 18.614 1.20926L25.9047 8.50002L18.614 15.7907C18.337 16.0677 18.337 16.5154 18.614 16.7923C18.8909 17.0692 19.3386 17.0692 19.6155 16.7923L27.407 9.00078C27.5451 8.86266 27.6146 8.68134 27.6146 8.49998C27.6146 8.31863 27.5451 8.13732 27.407 7.99919L19.6155 0.207676C19.3386 -0.0692311 18.8909 -0.0692311 18.614 0.20771Z" fill="#1273AC" fill-opacity="0.3"/>
<path d="M9.40302 0.20771C9.12608 0.484652 9.12608 0.93232 9.40302 1.20926L16.6937 8.50002L9.40302 15.7907C9.12608 16.0677 9.12608 16.5154 9.40302 16.7923C9.67996 17.0692 10.1276 17.0692 10.4046 16.7923L18.1961 9.00078C18.3342 8.86266 18.4036 8.68134 18.4036 8.49998C18.4036 8.31863 18.3342 8.13732 18.1961 7.99919L10.4046 0.207676C10.1276 -0.0692311 9.67996 -0.0692311 9.40302 0.20771Z" fill="#1273AC" fill-opacity="0.6"/>
<path d="M0.207705 0.20771C-0.0692361 0.484652 -0.0692361 0.93232 0.207705 1.20926L7.49843 8.50002L0.207706 15.7907C-0.0692354 16.0677 -0.0692354 16.5154 0.207706 16.7923C0.484648 17.0692 0.932316 17.0692 1.20926 16.7923L9.00077 9.00078C9.1389 8.86266 9.20832 8.68134 9.20832 8.49998C9.20832 8.31863 9.1389 8.13732 9.00077 7.99919L1.20926 0.207676C0.932315 -0.0692311 0.484647 -0.0692311 0.207705 0.20771Z" fill="#1273AC"/>
</svg>
