<svg width="47" height="47" viewBox="0 0 47 47" fill="none" xmlns="http://www.w3.org/2000/svg">
<path fill-rule="evenodd" clip-rule="evenodd" d="M30.1282 45.5475C39.8795 42.7175 47 33.8024 47 23.2424C47 10.406 36.4787 0 23.5 0C10.5213 0 0 10.406 0 23.2424C0 33.8024 7.12045 42.7175 16.8718 45.5475C18.2307 45.9419 19.6408 46.2181 21.0897 46.3641C21.0897 42.9091 25.9103 42.9091 25.9103 46.3641L24.9962 46.4329L24.7051 46.4548L23.5 46.4848C23.9957 46.4725 24.4977 46.4598 24.9962 46.4329C25.3029 46.4164 25.6084 46.3945 25.9103 46.3641C27.3592 46.2181 28.7693 45.9419 30.1282 45.5475Z" fill="#1273AC"/>
<path d="M21.0897 46.3641C21.8822 46.4439 22.8974 46.4548 23.5 46.4848C23.9957 46.4725 24.4977 46.4598 24.9962 46.4329L25.9103 46.3641C25.9103 42.9091 21.0897 42.9091 21.0897 46.3641Z" fill="#1273AC"/>
<circle cx="23.5" cy="23.5" r="17.5" fill="white"/>
<path d="M29.1528 22.7507C28.3084 22.7498 27.4736 22.9265 26.702 23.2692V17.6801C26.702 17.4413 26.5083 17.2479 26.2697 17.2479H25.7198V15.9285C25.7198 15.6898 25.5263 15.4963 25.2876 15.4963H24.3218V14.9785C24.3218 14.7396 24.1282 14.5462 23.8896 14.5462C23.6508 14.5462 23.4573 14.7396 23.4573 14.9785V15.4963H22.4652C22.2267 15.4963 22.033 15.6898 22.033 15.9285V17.2479H21.4558V15.5351C21.4558 15.2962 21.2622 15.1028 21.0236 15.1028H19.9125V13.7595C19.9125 13.5209 19.7189 13.3273 19.4802 13.3273H16.9953V12.5367C16.9953 12.2979 16.8019 12.1045 16.5631 12.1045C16.3244 12.1045 16.1307 12.2979 16.1307 12.5367V13.3273H13.7488C13.51 13.3273 13.3166 13.5209 13.3166 13.7595V15.1028H12.2057C11.9671 15.1028 11.7734 15.2962 11.7734 15.5351V31.4019C11.7734 31.6406 11.9671 31.8341 12.2057 31.8341H23.9061C25.375 34.3809 28.4604 35.5052 31.2234 34.5004C33.9863 33.4957 35.6288 30.6521 35.1186 27.7566C34.6084 24.8613 32.0928 22.7505 29.1528 22.7507V22.7507ZM14.1811 14.1918H19.048V15.1028H14.1811V14.1918ZM17.946 30.9697H16.9953V28.323H17.946V30.9697ZM16.1307 30.9697H15.2833V28.323H16.1307V30.9697ZM20.591 30.9697H18.8104V27.8907C18.8104 27.6519 18.6167 27.4585 18.3782 27.4585H14.8509C14.6124 27.4585 14.4187 27.6519 14.4187 27.8907V30.9697H12.638V15.9673H20.5913L20.591 30.9697ZM22.8976 16.3607H24.8554V17.2479H22.8976V16.3607ZM21.4558 30.9697V18.1123H25.8377V23.7411C25.5251 23.9461 25.2321 24.1797 24.9622 24.4384C24.9199 24.425 24.8757 24.4179 24.8312 24.4179H22.4842C22.2453 24.4179 22.0519 24.6116 22.0519 24.8503C22.0519 25.0891 22.2453 25.2825 22.4842 25.2825H24.2298C23.9773 25.6343 23.7631 26.0119 23.591 26.4092H22.4842C22.2453 26.4092 22.0519 26.6028 22.0519 26.8415C22.0519 27.0801 22.2453 27.2737 22.4842 27.2737H23.2922C23.1823 27.6936 23.1179 28.1238 23.1005 28.5577H22.4842C22.2453 28.5577 22.0519 28.7511 22.0519 28.9899C22.0519 29.2285 22.2453 29.4222 22.4842 29.4222H23.1259C23.1793 29.952 23.3032 30.4724 23.4937 30.9697H21.4558ZM29.153 34.0019C26.2847 34.0022 23.9594 31.677 23.9594 28.8089C23.9592 25.9406 26.2844 23.6153 29.1527 23.6153C32.0209 23.6153 34.3461 25.9403 34.3461 28.8087C34.343 31.6755 32.0196 33.9987 29.1528 34.0019H29.153Z" fill="#1273AC"/>
<path d="M13.9947 20.514H19.2345C19.4732 20.514 19.6667 20.3205 19.6667 20.0816C19.6667 19.8431 19.4732 19.6494 19.2345 19.6494H13.9947C13.7561 19.6494 13.5625 19.8431 13.5625 20.0816C13.5625 20.3205 13.7561 20.514 13.9947 20.514Z" fill="#1273AC"/>
<path d="M13.9947 22.9247H19.2345C19.4732 22.9247 19.6667 22.7313 19.6667 22.4924C19.6667 22.2538 19.4732 22.0601 19.2345 22.0601H13.9947C13.7561 22.0601 13.5625 22.2538 13.5625 22.4924C13.5625 22.7313 13.7561 22.9247 13.9947 22.9247Z" fill="#1273AC"/>
<path d="M13.9947 25.3346H19.2345C19.4732 25.3346 19.6667 25.1412 19.6667 24.9024C19.6667 24.6638 19.4732 24.4702 19.2345 24.4702H13.9947C13.7561 24.4702 13.5625 24.6638 13.5625 24.9024C13.5625 25.1412 13.7561 25.3346 13.9947 25.3346Z" fill="#1273AC"/>
<path d="M13.9947 18.1037H19.2345C19.4732 18.1037 19.6667 17.9103 19.6667 17.6715C19.6667 17.4328 19.4732 17.2393 19.2345 17.2393H13.9947C13.7561 17.2393 13.5625 17.4328 13.5625 17.6715C13.5625 17.9103 13.7561 18.1037 13.9947 18.1037Z" fill="#1273AC"/>
<path d="M22.484 23.134H24.7371C24.9758 23.134 25.1694 22.9404 25.1694 22.7017C25.1694 22.4629 24.9758 22.2695 24.7371 22.2695H22.484C22.2452 22.2695 22.0518 22.4629 22.0518 22.7017C22.0518 22.9404 22.2452 23.134 22.484 23.134Z" fill="#1273AC"/>
<path d="M22.484 21.0379H24.7371C24.9758 21.0379 25.1694 20.8445 25.1694 20.6057C25.1694 20.367 24.9758 20.1733 24.7371 20.1733H22.484C22.2452 20.1733 22.0518 20.367 22.0518 20.6057C22.0518 20.8445 22.2452 21.0379 22.484 21.0379Z" fill="#1273AC"/>
<path d="M31.4625 25.7584C30.8504 25.1446 30.0193 24.7993 29.1523 24.7993C28.2854 24.7993 27.4544 25.1446 26.8421 25.7584C26.2544 26.3495 25.9004 27.1334 25.8456 27.9652C25.8162 28.4225 25.8832 28.8811 26.0423 29.3109C26.209 29.7551 26.4639 30.1607 26.792 30.5032L28.8374 32.6816C28.9192 32.7687 29.0332 32.818 29.1524 32.818C29.2719 32.818 29.3858 32.7687 29.4677 32.6816L31.5128 30.5032C31.8408 30.1607 32.0959 29.7551 32.2622 29.311C32.4215 28.8812 32.4886 28.4228 32.4591 27.9653C32.4045 27.1335 32.0502 26.3495 31.4625 25.7584V25.7584ZM31.4501 29.0146C31.3235 29.3489 31.1304 29.6541 30.8824 29.9114L29.1523 31.7543L27.4222 29.9114C27.1742 29.6541 26.9809 29.3489 26.8543 29.0146C26.7367 28.698 26.6868 28.3601 26.708 28.0229C26.7489 27.3994 27.014 26.8118 27.4545 26.3686C27.9043 25.9175 28.5152 25.6641 29.1523 25.6641C29.7892 25.6641 30.4002 25.9175 30.8499 26.3686C31.2904 26.8118 31.5555 27.3994 31.5965 28.0229C31.6177 28.3601 31.5677 28.698 31.4501 29.0146V29.0146Z" fill="#1273AC"/>
<path d="M29.1527 26.2695C28.2392 26.2695 27.4961 27.0275 27.4961 27.9589C27.4961 28.8905 28.2392 29.6484 29.1527 29.6484C30.066 29.6484 30.8091 28.8905 30.8091 27.9589C30.8091 27.0275 30.066 26.2695 29.1527 26.2695V26.2695ZM29.1527 28.7838C28.7159 28.7838 28.3606 28.4138 28.3606 27.9589C28.3606 27.5042 28.7159 27.134 29.1527 27.134C29.5893 27.134 29.9446 27.5042 29.9446 27.9589C29.9446 28.4137 29.5894 28.7838 29.1527 28.7838V28.7838Z" fill="#1273AC"/>
</svg>
