<svg width="40" height="40" viewBox="0 0 40 40" fill="none" xmlns="http://www.w3.org/2000/svg">
<g clip-path="url(#clip0_18_910)">
<path fill-rule="evenodd" clip-rule="evenodd" d="M5.45929 31.3358C5.93689 31.0733 6.47522 30.9335 7.03522 30.9335C7.91168 30.9335 8.73566 31.2747 9.35547 31.8945C9.97528 32.514 10.3165 33.3383 10.3165 34.2145C10.3165 35.0909 9.97528 35.9152 9.35547 36.5347C8.73566 37.1545 7.91168 37.496 7.03522 37.496C6.15875 37.496 5.33478 37.1545 4.71527 36.5347C4.09546 35.9152 3.75397 35.0912 3.75397 34.2148C3.75397 33.5571 3.94623 32.9291 4.30389 32.3947C1.52588 28.8791 0 24.4937 0 20C0 14.6579 2.08038 9.63531 5.85785 5.85785C9.63531 2.08038 14.6579 0 20 0C21.3397 0 22.6791 0.133362 23.9813 0.396423C24.4043 0.482178 24.6777 0.894165 24.5923 1.31714C24.5068 1.74011 24.0942 2.01355 23.6719 1.9281C22.4713 1.68549 21.236 1.5625 20 1.5625C9.83337 1.5625 1.5625 9.83337 1.5625 20C1.5625 24.1043 2.94342 28.1107 5.45929 31.3358ZM7.03522 35.9335C7.4942 35.9335 7.92603 35.7547 8.25043 35.43C8.57513 35.1053 8.75397 34.6738 8.75397 34.2148C8.75397 33.7555 8.57513 33.324 8.25043 32.9993C7.92572 32.6749 7.4942 32.496 7.03522 32.496C6.57623 32.496 6.14441 32.6746 5.82001 32.9993C5.4953 33.324 5.31647 33.7555 5.31647 34.2148C5.31647 34.6738 5.4953 35.1053 5.82001 35.43C6.14471 35.7547 6.57623 35.9335 7.03522 35.9335ZM35.2853 3.4649C36.4087 4.58826 36.5451 6.3302 35.6958 7.60431C38.4741 11.1202 40.0003 15.5059 40.0003 19.9999C40.0003 25.342 37.9199 30.3646 34.1424 34.1421C30.365 37.9196 25.3424 39.9999 20.0003 39.9999C18.6737 39.9999 17.3468 39.869 16.0568 39.6111C15.6338 39.5263 15.3595 39.1149 15.444 38.6917C15.5288 38.2687 15.9405 37.9943 16.3635 38.0789C17.5528 38.3169 18.7765 38.4374 20.0003 38.4374C30.1669 38.4374 38.4378 30.1666 38.4378 19.9999C38.4378 15.8956 37.0569 11.8896 34.541 8.66418C34.0634 8.92664 33.5251 9.06641 32.9651 9.06641C32.0886 9.06641 31.2646 8.72522 30.6448 8.10541C30.025 7.4856 29.6838 6.66162 29.6838 5.78516C29.6838 4.90869 30.025 4.08472 30.6448 3.4649C31.2646 2.8454 32.0886 2.50391 32.9651 2.50391C33.8415 2.50391 34.6655 2.8454 35.2853 3.4649ZM31.2463 5.78516C31.2463 6.24445 31.4252 6.67596 31.7499 7.00067C32.0743 7.32507 32.5058 7.50391 32.9651 7.50391C33.4241 7.50391 33.8559 7.32507 34.1806 7.00067C34.8505 6.33051 34.8505 5.24011 34.1806 4.56995C33.8559 4.24524 33.4241 4.06641 32.9651 4.06641C32.5061 4.06641 32.0743 4.24524 31.7499 4.56995C31.4252 4.89465 31.2463 5.32617 31.2463 5.78516ZM16.7764 33.4375C16.7764 33.869 17.1264 34.2188 17.5576 34.2188H22.4426C22.8741 34.2188 23.2238 33.869 23.2238 33.4375V31.9229C24.251 31.6464 25.2331 31.2393 26.1559 30.7077L27.2253 31.777C27.3718 31.9235 27.5704 32.0059 27.7779 32.0059C27.9849 32.0059 28.1838 31.9235 28.3303 31.7767L31.7831 28.3215C32.0879 28.0164 32.0879 27.5217 31.7831 27.2168L30.715 26.1487C31.2466 25.2258 31.6537 24.2438 31.9302 23.2166H33.439C33.8705 23.2166 34.2202 22.8668 34.2202 22.4353V17.5504C34.2202 17.1188 33.8705 16.7691 33.439 16.7691H31.9299C31.6534 15.7422 31.2466 14.7601 30.715 13.8373L31.7773 12.775C31.9238 12.6285 32.0062 12.4295 32.0062 12.2223C32.0059 12.0151 31.9235 11.8161 31.777 11.6696L28.3215 8.21686C28.0166 7.91199 27.5219 7.91199 27.2167 8.21716L26.1559 9.27826C25.2331 8.74664 24.251 8.33954 23.2238 8.06305V6.5625C23.2238 6.13098 22.8741 5.78125 22.4426 5.78125H17.5576C17.1264 5.78125 16.7764 6.13098 16.7764 6.5625V8.06335C15.7494 8.33954 14.7674 8.74664 13.8445 9.27826L12.7834 8.21716C12.4786 7.91229 11.9839 7.91199 11.6787 8.21686L8.22351 11.6699C8.07672 11.8164 7.99432 12.0151 7.99432 12.2223C7.99432 12.4295 8.07672 12.6285 8.22321 12.775L9.28552 13.8373C8.75391 14.7601 8.3468 15.7419 8.07031 16.7691H6.56427C6.13275 16.7691 5.78302 17.1188 5.78302 17.55L5.78027 22.435C5.77997 22.6422 5.86237 22.8412 6.00885 22.9877C6.15534 23.1342 6.354 23.2166 6.56152 23.2166H8.07031C8.3468 24.2438 8.75391 25.2258 9.28552 26.1487L8.21741 27.2168C7.91254 27.5217 7.91223 28.0164 8.21741 28.3215L11.6702 31.7767C11.8166 31.9232 12.0153 32.0059 12.2225 32.0059H12.2228C12.4301 32.0059 12.6287 31.9235 12.7752 31.777L13.8442 30.7077C14.7674 31.2393 15.7494 31.6464 16.7764 31.9229V33.4375ZM14.1506 29.0646C13.8415 28.8647 13.4347 28.9081 13.1741 29.1684L12.2228 30.1196L9.87451 27.7695L10.8248 26.8188C11.0851 26.5585 11.1285 26.1517 10.9286 25.8426C10.2203 24.7464 9.72223 23.5449 9.44879 22.2711C9.37128 21.9113 9.05328 21.6541 8.68494 21.6541H7.34308L7.34491 18.3316H8.68494C9.05328 18.3316 9.37128 18.0746 9.44879 17.7145C9.72223 16.441 10.2203 15.2396 10.9286 14.1434C11.1285 13.8342 11.0851 13.4274 10.8248 13.1671L9.88062 12.2226L12.2308 9.87427L13.1741 10.8179C13.4347 11.0782 13.8412 11.1212 14.1506 10.9216C15.2465 10.2133 16.448 9.71527 17.7218 9.44183C18.0816 9.36432 18.3389 9.04602 18.3389 8.67798V7.34375H21.6613V8.67767C21.6613 9.04602 21.9183 9.36432 22.2784 9.44153C23.5519 9.71527 24.7537 10.213 25.8495 10.9213C26.1587 11.1212 26.5655 11.0782 26.8258 10.8176L27.7694 9.87427L30.1196 12.2226L29.1753 13.1668C28.9147 13.4274 28.8717 13.8342 29.0716 14.1434C29.7799 15.2396 30.2776 16.441 30.5514 17.7145C30.6286 18.0746 30.9469 18.3316 31.3152 18.3316H32.6577V21.6541H31.3152C30.9469 21.6541 30.6289 21.9113 30.5514 22.2711C30.2779 23.5446 29.7799 24.7464 29.0716 25.8423C28.8717 26.1517 28.915 26.5585 29.1753 26.8188L30.1257 27.7692L27.7773 30.1193L26.8261 29.1684C26.5655 28.9078 26.1587 28.8647 25.8495 29.0646C24.7534 29.7729 23.5519 30.2707 22.2784 30.5444C21.9183 30.6219 21.6613 30.9399 21.6613 31.3083V32.6562H18.3389V31.3083C18.3389 30.9402 18.0816 30.6219 17.7218 30.5444C16.4483 30.271 15.2468 29.7729 14.1506 29.0646ZM20.0003 13.5447C23.5599 13.5447 26.4557 16.4405 26.4557 20.0001C26.4557 23.5596 23.5599 26.4554 20.0003 26.4554C16.4407 26.4554 13.5449 23.5596 13.5449 20.0001C13.5449 16.4405 16.4407 13.5447 20.0003 13.5447ZM20.0003 15.1072C17.3022 15.1072 15.1074 17.302 15.1074 20.0001C15.1074 22.6981 17.3022 24.8929 20.0003 24.8929C22.6984 24.8929 24.8932 22.6978 24.8932 20.0001C24.8932 17.3023 22.6984 15.1072 20.0003 15.1072ZM27.1934 2.95477C27.399 2.95477 27.6005 2.87115 27.7457 2.72589C27.891 2.57971 27.9746 2.3783 27.9746 2.17261C27.9746 1.96814 27.8913 1.76642 27.7457 1.62024C27.6005 1.47498 27.399 1.39136 27.1934 1.39136C26.9871 1.39136 26.7866 1.47498 26.6413 1.62024C26.4957 1.76642 26.4121 1.96722 26.4121 2.17261C26.4121 2.37891 26.4957 2.57971 26.6413 2.72589C26.7866 2.87115 26.9871 2.95477 27.1934 2.95477ZM12.2885 37.2882C12.4337 37.1429 12.6354 37.0593 12.8408 37.0593C13.0462 37.0593 13.2479 37.1429 13.3932 37.2882C13.5385 37.4335 13.6221 37.6352 13.6221 37.8406C13.6221 38.046 13.5385 38.2477 13.3932 38.3929C13.2479 38.5382 13.0462 38.6218 12.8408 38.6218C12.6354 38.6218 12.4337 38.5382 12.2885 38.3929C12.1432 38.2477 12.0596 38.0469 12.0596 37.8406C12.0596 37.6352 12.1432 37.4335 12.2885 37.2882Z" fill="url(#paint0_linear_18_910)"/>
</g>
<defs>
<linearGradient id="paint0_linear_18_910" x1="20.0001" y1="0" x2="20.0001" y2="39.9999" gradientUnits="userSpaceOnUse">
<stop stop-color="#419CD1"/>
<stop offset="1" stop-color="#1273AC"/>
</linearGradient>
<clipPath id="clip0_18_910">
<rect width="40" height="40" fill="white"/>
</clipPath>
</defs>
</svg>
