<svg width="40" height="41" viewBox="0 0 40 41" fill="none" xmlns="http://www.w3.org/2000/svg">
<path fill-rule="evenodd" clip-rule="evenodd" d="M33.8863 27.8954H28.333V25.573C28.333 25.2495 28.0709 24.9873 27.7476 24.9873C27.4242 24.9873 27.1621 25.2495 27.1621 25.573V27.8954H11.047V11.7983C11.047 11.7839 11.0588 11.772 11.0733 11.772H16.4555V15.7789C16.4555 16.1124 16.6252 16.4152 16.9096 16.589C17.0622 16.6823 17.2327 16.7293 17.4039 16.7293C17.5517 16.7293 17.6999 16.6943 17.8373 16.6237L19.1046 15.9739L20.3718 16.6237C20.6684 16.776 21.0152 16.763 21.2996 16.589C21.584 16.4152 21.7537 16.1124 21.7537 15.7789V11.772H27.1359C27.1504 11.772 27.1623 11.7838 27.1623 11.7983V22.8636C27.1623 23.1871 27.4244 23.4494 27.7477 23.4494C28.0711 23.4494 28.3332 23.1871 28.3332 22.8636V21.3704H29.4184C30.1241 21.3704 30.6982 20.7961 30.6982 20.09V18.6416C30.6982 18.5965 30.7255 18.5554 30.7645 18.5417C31.0354 18.4459 31.3041 18.3346 31.5631 18.211C31.6015 18.1928 31.6488 18.2023 31.6811 18.2346L32.7046 19.2586C33.2036 19.7577 34.0155 19.7577 34.5145 19.2586L36.511 17.261C37.01 16.7618 37.01 15.9494 36.511 15.4502L35.4875 14.4262C35.4552 14.3939 35.4457 14.3463 35.464 14.3081C35.5876 14.0489 35.6987 13.7801 35.7945 13.5091C35.8084 13.47 35.8495 13.4428 35.8945 13.4428H37.3421C38.0477 13.4428 38.6219 12.8683 38.6219 12.1623V9.33726C38.6219 8.63128 38.0478 8.05685 37.3421 8.05685H35.8945C35.8494 8.05685 35.8083 8.02957 35.7945 7.99057C35.6987 7.71949 35.5876 7.45069 35.4641 7.19157C35.4458 7.15319 35.4552 7.10575 35.4875 7.07346L36.511 6.04943C37.01 5.5502 37.01 4.73783 36.511 4.2386L34.5145 2.24103C34.0155 1.74195 33.2036 1.74195 32.7046 2.24103L31.6809 3.26506C31.6486 3.29742 31.6011 3.30704 31.5628 3.28859C31.3041 3.16509 31.0355 3.05394 30.7642 2.95788C30.7252 2.94404 30.698 2.90293 30.698 2.8579V1.40952C30.698 0.703537 30.1238 0.129028 29.4182 0.129028H26.5946C25.889 0.129028 25.3148 0.703458 25.3148 1.40952V2.85783C25.3148 2.90293 25.2876 2.94404 25.2484 2.95788C24.9773 3.05378 24.7087 3.16509 24.4499 3.28859C24.4116 3.30672 24.3642 3.29734 24.3319 3.26498L23.3084 2.24095C22.8094 1.74187 21.9975 1.74187 21.4985 2.24095L19.502 4.23852C19.003 4.73776 19.003 5.55012 19.502 6.04936L20.5255 7.07339C20.5578 7.10575 20.5673 7.15319 20.549 7.19142C20.4255 7.4503 20.3144 7.71902 20.2184 7.99041C20.2046 8.02949 20.1635 8.05677 20.1185 8.05677H18.6709C17.9652 8.05677 17.3911 8.63112 17.3911 9.33718V10.6005H11.0733C10.4131 10.6005 9.87609 11.1378 9.87609 11.7983V27.8953H6.11375C2.74258 27.8954 0 30.6393 0 34.0122C0 37.3851 2.74258 40.129 6.11375 40.129H8.7893C9.11266 40.129 9.37477 39.8668 9.37477 39.5433C9.37477 39.2197 9.11266 38.9575 8.7893 38.9575H6.11375C3.38828 38.9575 1.17086 36.739 1.17086 34.0122C1.17086 31.2854 3.3882 29.0668 6.11375 29.0668H33.8863C36.6118 29.0668 38.8291 31.2853 38.8291 34.0122C38.8291 36.739 36.6118 38.9575 33.8863 38.9575H11.5065C11.1831 38.9575 10.921 39.2197 10.921 39.5433C10.921 39.8668 11.1831 40.129 11.5065 40.129H33.8863C37.2574 40.129 40 37.3851 40 34.0122C40 30.6393 37.2574 27.8954 33.8863 27.8954ZM27.1359 10.6006H23.6708C23.7498 8.27548 25.6637 6.40813 28.0065 6.40813C30.3993 6.40813 32.3459 8.35575 32.3459 10.7498C32.3459 13.0338 30.5737 14.9101 28.333 15.078V11.7983C28.333 11.1379 27.796 10.6006 27.1359 10.6006ZM18.562 9.33726C18.562 9.27723 18.6108 9.22838 18.6709 9.22838H20.1185C20.6595 9.22838 21.1433 8.88782 21.3223 8.38108C21.4046 8.14838 21.4999 7.91788 21.6057 7.69604C21.8371 7.21072 21.7358 6.62762 21.3534 6.24516L20.3298 5.22113C20.2874 5.17876 20.2874 5.10958 20.3298 5.06714L22.3264 3.06957C22.3689 3.02713 22.438 3.02697 22.4804 3.06957L23.504 4.0936C23.8863 4.47614 24.4691 4.57752 24.9541 4.34608C25.1759 4.24024 25.4063 4.1448 25.6388 4.06249C26.1454 3.88342 26.4858 3.39935 26.4858 2.85798V1.40952C26.4858 1.34941 26.5346 1.30056 26.5946 1.30056H29.4182C29.4782 1.30056 29.5271 1.34941 29.5271 1.40952V2.85783C29.5271 3.39919 29.8675 3.88326 30.3739 4.06226C30.6065 4.14465 30.837 4.24001 31.0587 4.34584C31.5437 4.57736 32.1264 4.47598 32.5088 4.09345L33.5323 3.06942C33.5748 3.02682 33.6438 3.02697 33.6863 3.06942L35.6829 5.06699C35.7254 5.10943 35.7254 5.1786 35.6829 5.22097L34.6594 6.245C34.277 6.62746 34.1755 7.21057 34.407 7.69589C34.513 7.91803 34.6083 8.14854 34.6904 8.38092C34.8695 8.88774 35.3533 9.22822 35.8943 9.22822H37.342C37.402 9.22822 37.4508 9.27707 37.4508 9.33711V12.1621C37.4508 12.2222 37.402 12.2711 37.342 12.2711H35.8943C35.3533 12.2711 34.8695 12.6116 34.6904 13.1185C34.6083 13.3508 34.513 13.5813 34.407 13.8034C34.1756 14.2887 34.277 14.8717 34.6594 15.2543L35.6829 16.2783C35.7254 16.3207 35.7254 16.3899 35.6829 16.4323L33.6863 18.4299C33.6439 18.4724 33.5748 18.4725 33.5323 18.4299L32.5088 17.4059C32.1266 17.0233 31.5438 16.9219 31.0588 17.1534C30.8367 17.2593 30.6063 17.3547 30.3739 17.4369C29.8673 17.6161 29.527 18.1002 29.527 18.6414V20.0898C29.527 20.1498 29.4782 20.1987 29.4181 20.1987H28.3329V16.2522C31.2198 16.0824 33.5166 13.6797 33.5166 10.7495C33.5166 7.70957 31.0447 5.23637 28.0063 5.23637C25.018 5.23637 22.5793 7.62921 22.4998 10.6002H18.5619V9.33726H18.562ZM17.6263 11.772H20.5827V15.4156L19.5374 14.8796C19.2665 14.7405 18.9428 14.7405 18.6716 14.8796L17.6263 15.4156V11.772ZM5.0166 34.0121C5.0166 32.4704 6.2702 31.2162 7.81105 31.2162C9.35199 31.2162 10.6055 32.4704 10.6055 34.0121C10.6055 35.5537 9.35199 36.8079 7.81105 36.8079C6.2702 36.8079 5.0166 35.5537 5.0166 34.0121ZM6.18746 34.0121C6.18746 34.9078 6.91582 35.6365 7.81105 35.6365C8.70637 35.6365 9.43465 34.9078 9.43465 34.0121C9.43465 33.1164 8.70637 32.3877 7.81105 32.3877C6.91582 32.3877 6.18746 33.1164 6.18746 34.0121ZM15.937 31.2163C17.4779 31.2163 18.7315 32.4705 18.7315 34.0122C18.7315 35.5538 17.4779 36.808 15.937 36.808C14.3962 36.808 13.1426 35.5538 13.1426 34.0122C13.1426 32.4705 14.3962 31.2163 15.937 31.2163ZM15.937 32.3878C15.0418 32.3878 14.3134 33.1165 14.3134 34.0122C14.3134 34.9079 15.0417 35.6366 15.937 35.6366C16.8323 35.6366 17.5606 34.9079 17.5606 34.0122C17.5606 33.1165 16.8323 32.3878 15.937 32.3878ZM26.8575 34.0122C26.8575 32.4705 25.6039 31.2163 24.063 31.2163C22.5221 31.2163 21.2686 32.4705 21.2686 34.0122C21.2686 35.5538 22.5221 36.808 24.063 36.808C25.6039 36.808 26.8575 35.5538 26.8575 34.0122ZM22.4393 34.0122C22.4393 33.1165 23.1677 32.3878 24.0629 32.3878C24.9582 32.3878 25.6865 33.1165 25.6865 34.0122C25.6865 34.9079 24.9582 35.6366 24.0629 35.6366C23.1677 35.6366 22.4393 34.9079 22.4393 34.0122ZM32.189 31.2163C33.7298 31.2163 34.9834 32.4705 34.9834 34.0122C34.9834 35.5538 33.7298 36.808 32.189 36.808C30.6481 36.808 29.3945 35.5538 29.3945 34.0122C29.3945 32.4705 30.648 31.2163 32.189 31.2163ZM32.189 32.3878C31.2938 32.3878 30.5654 33.1165 30.5654 34.0122C30.5654 34.9079 31.2937 35.6366 32.189 35.6366C33.0842 35.6366 33.8126 34.9079 33.8126 34.0122C33.8126 33.1165 33.0842 32.3878 32.189 32.3878ZM15.2568 22.7225C15.2568 22.2062 15.6767 21.7863 16.1926 21.7863H22.0161C22.5321 21.7863 22.9519 22.2062 22.9519 22.7225V25.2227C22.9519 25.7389 22.5321 26.1588 22.0161 26.1588H16.1926C15.6766 26.1588 15.2568 25.7389 15.2568 25.2227V22.7225ZM16.4278 24.9873H21.781V22.9577H16.4278V24.9873Z" fill="url(#paint0_linear_18_901)"/>
<defs>
<linearGradient id="paint0_linear_18_901" x1="20" y1="0.129028" x2="20" y2="40.129" gradientUnits="userSpaceOnUse">
<stop stop-color="#419CD1"/>
<stop offset="1" stop-color="#1273AC"/>
</linearGradient>
</defs>
</svg>
