<svg width="40" height="40" viewBox="0 0 40 40" fill="none" xmlns="http://www.w3.org/2000/svg">
<path fill-rule="evenodd" clip-rule="evenodd" d="M38.7441 23.7794L37.9402 23.7781L35.5183 16.6961C35.4762 16.5729 35.3966 16.466 35.2908 16.3902C35.1849 16.3144 35.0581 16.2736 34.9279 16.2734L28.131 16.2628L28.1388 11.2628C28.139 11.1807 28.1229 11.0994 28.0916 11.0235C28.0604 10.9476 28.0144 10.8786 27.9565 10.8205C27.8985 10.7624 27.8297 10.7162 27.7539 10.6847C27.6781 10.6532 27.5969 10.6369 27.5148 10.6367L18.6581 10.6229C18.754 10.2824 18.8065 9.93112 18.8144 9.57744C18.8155 8.86323 18.6759 8.15578 18.4036 7.49551C18.1314 6.83523 17.7317 6.23505 17.2274 5.72923C16.7232 5.22341 16.1243 4.82186 15.4649 4.54751C14.8054 4.27316 14.0984 4.13137 13.3842 4.13026C12.67 4.12914 11.9626 4.26871 11.3023 4.54099C10.642 4.81328 10.0418 5.21295 9.53601 5.71718C9.03019 6.22142 8.62864 6.82035 8.35429 7.47977C8.07994 8.13919 7.93815 8.8462 7.93703 9.56041C7.94386 9.91411 7.99528 10.2655 8.09008 10.6063L1.26469 10.5956C1.18261 10.5955 1.1013 10.6115 1.02542 10.6428C0.949532 10.6741 0.880554 10.7201 0.822422 10.778C0.76429 10.836 0.718143 10.9048 0.686615 10.9806C0.655087 11.0564 0.638797 11.1376 0.638674 11.2197L0.607423 31.2197C0.60729 31.3018 0.623327 31.3831 0.654617 31.459C0.685908 31.5349 0.73184 31.6038 0.789791 31.662C0.847742 31.7201 0.916576 31.7663 0.992362 31.7978C1.06815 31.8293 1.1494 31.8456 1.23149 31.8457L2.5268 31.8478C2.67534 32.8892 3.19422 33.8422 3.98833 34.5322C4.78245 35.2222 5.79861 35.6029 6.85059 35.6045C7.90258 35.6062 8.91993 35.2286 9.71619 34.5411C10.5125 33.8537 11.0343 32.9023 11.1861 31.8613L28.7768 31.8888C28.9253 32.9303 29.4442 33.8833 30.2383 34.5733C31.0324 35.2633 32.0486 35.644 33.1006 35.6456C34.1526 35.6473 35.1699 35.2698 35.9662 34.5823C36.7624 33.8948 37.2843 32.9434 37.4361 31.9024L38.7314 31.9045C38.8135 31.9046 38.8948 31.8886 38.9707 31.8573C39.0466 31.826 39.1156 31.7801 39.1737 31.7221C39.2318 31.6642 39.278 31.5953 39.3095 31.5195C39.341 31.4438 39.3573 31.3625 39.3574 31.2804L39.3682 24.4054C39.3683 24.3233 39.3523 24.242 39.321 24.1661C39.2897 24.0902 39.2438 24.0212 39.1858 23.9631C39.1279 23.905 39.059 23.8588 38.9832 23.8273C38.9074 23.7958 38.8262 23.7795 38.7441 23.7794ZM34.476 17.5L36.6245 23.75H28.1252V17.5H34.476ZM13.3595 5.39065C14.4701 5.39191 15.5347 5.83362 16.32 6.61887C17.1052 7.40413 17.5469 8.4688 17.5482 9.57932C17.5482 11.3667 14.8691 15.4939 13.3595 17.6106C11.8498 15.4941 9.17086 11.3675 9.17086 9.57932C9.17212 8.4688 9.61384 7.40413 10.3991 6.61887C11.1843 5.83362 12.249 5.39191 13.3595 5.39065ZM1.87516 11.875H8.5093C8.9267 12.8758 9.56412 14.0681 10.4216 15.4519C11.6255 17.3936 12.8093 18.9797 12.8591 19.0463C12.9173 19.1241 12.9928 19.1872 13.0797 19.2307C13.1666 19.2742 13.2624 19.2969 13.3595 19.2969C13.4567 19.2969 13.5525 19.2742 13.6394 19.2307C13.7263 19.1872 13.8018 19.1241 13.86 19.0463C13.9098 18.9797 15.0936 17.3936 16.2975 15.4519C17.1543 14.0703 17.7917 12.878 18.2098 11.875H26.8752V30.625H11.2048C11.0547 29.5838 10.5343 28.6315 9.73913 27.9427C8.94394 27.254 7.92717 26.8749 6.87516 26.8749C5.82315 26.8749 4.80638 27.254 4.01119 27.9427C3.216 28.6315 2.69567 29.5838 2.54555 30.625H1.87516V11.875ZM6.87516 34.375C6.25709 34.375 5.65291 34.1917 5.139 33.8484C4.6251 33.505 4.22456 33.0169 3.98803 32.4459C3.75151 31.8749 3.68963 31.2466 3.8102 30.6404C3.93078 30.0342 4.22841 29.4774 4.66545 29.0403C5.10249 28.6033 5.65931 28.3056 6.2655 28.1851C6.87169 28.0645 7.50003 28.1264 8.07104 28.3629C8.64206 28.5994 9.13012 29 9.4735 29.5139C9.81688 30.0278 10.0002 30.632 10.0002 31.25C9.99923 32.0785 9.66969 32.8729 9.08384 33.4587C8.49799 34.0446 7.70368 34.3741 6.87516 34.375ZM33.1252 34.375C32.5071 34.375 31.9029 34.1917 31.389 33.8484C30.8751 33.505 30.4746 33.0169 30.238 32.4459C30.0015 31.8749 29.9396 31.2466 30.0602 30.6404C30.1808 30.0342 30.4784 29.4774 30.9155 29.0403C31.3525 28.6033 31.9093 28.3056 32.5155 28.1851C33.1217 28.0645 33.75 28.1264 34.321 28.3629C34.8921 28.5994 35.3801 29 35.7235 29.5139C36.0669 30.0278 36.2502 30.632 36.2502 31.25C36.2492 32.0785 35.9197 32.8729 35.3338 33.4587C34.748 34.0446 33.9537 34.3741 33.1252 34.375ZM38.1252 30.625H37.4548C37.3047 29.5838 36.7843 28.6315 35.9891 27.9427C35.1939 27.254 34.1772 26.8749 33.1252 26.8749C32.0732 26.8749 31.0564 27.254 30.2612 27.9427C29.466 28.6315 28.9457 29.5838 28.7956 30.625H28.1252V25H38.1252V30.625ZM5.83331 29.691C6.14165 29.485 6.50416 29.375 6.875 29.375C7.37211 29.3756 7.8487 29.5733 8.20021 29.9248C8.55172 30.2763 8.74944 30.7529 8.75 31.25C8.75 31.6208 8.64003 31.9834 8.43401 32.2917C8.22798 32.6 7.93514 32.8404 7.59253 32.9823C7.24992 33.1242 6.87292 33.1613 6.50921 33.089C6.14549 33.0166 5.8114 32.8381 5.54918 32.5758C5.28695 32.3136 5.10838 31.9795 5.03603 31.6158C4.96368 31.2521 5.00081 30.8751 5.14273 30.5325C5.28464 30.1899 5.52497 29.897 5.83331 29.691ZM6.52777 31.7697C6.63055 31.8384 6.75139 31.875 6.875 31.875C7.04071 31.8748 7.19957 31.8089 7.31674 31.6917C7.43391 31.5746 7.49982 31.4157 7.5 31.25C7.5 31.1264 7.46335 31.0056 7.39467 30.9028C7.32599 30.8 7.22838 30.7199 7.11418 30.6726C6.99998 30.6253 6.87431 30.6129 6.75307 30.637C6.63183 30.6611 6.52047 30.7207 6.43306 30.8081C6.34565 30.8955 6.28613 31.0068 6.26201 31.1281C6.2379 31.2493 6.25027 31.375 6.29758 31.4892C6.34488 31.6034 6.42499 31.701 6.52777 31.7697ZM32.0833 29.691C32.3917 29.485 32.7542 29.375 33.125 29.375C33.6221 29.3756 34.0987 29.5733 34.4502 29.9248C34.8017 30.2763 34.9995 30.7529 35 31.25C35 31.6208 34.89 31.9834 34.684 32.2917C34.478 32.6 34.1851 32.8404 33.8425 32.9823C33.4999 33.1242 33.1229 33.1613 32.7592 33.089C32.3955 33.0166 32.0614 32.8381 31.7992 32.5758C31.537 32.3136 31.3584 31.9795 31.286 31.6158C31.2137 31.2521 31.2508 30.8751 31.3927 30.5325C31.5346 30.1899 31.775 29.897 32.0833 29.691ZM32.7778 31.7697C32.8806 31.8384 33.0014 31.875 33.125 31.875C33.2907 31.8748 33.4496 31.8089 33.5667 31.6917C33.6839 31.5746 33.7498 31.4157 33.75 31.25C33.75 31.1264 33.7133 31.0056 33.6447 30.9028C33.576 30.8 33.4784 30.7199 33.3642 30.6726C33.25 30.6253 33.1243 30.6129 33.0031 30.637C32.8818 30.6611 32.7705 30.7207 32.6831 30.8081C32.5957 30.8955 32.5361 31.0068 32.512 31.1281C32.4879 31.2493 32.5003 31.375 32.5476 31.4892C32.5949 31.6034 32.675 31.701 32.7778 31.7697ZM15.6664 7.85669C15.9712 8.31286 16.1339 8.84917 16.1339 9.39781C16.1331 10.1333 15.8406 10.8384 15.3205 11.3584C14.8005 11.8785 14.0954 12.171 13.3599 12.1719C12.8113 12.1719 12.275 12.0092 11.8188 11.7044C11.3626 11.3996 11.0071 10.9663 10.7971 10.4595C10.5871 9.95259 10.5322 9.39484 10.6392 8.85674C10.7463 8.31864 11.0105 7.82436 11.3984 7.43641C11.7863 7.04846 12.2806 6.78426 12.8187 6.67721C13.3568 6.57017 13.9146 6.62509 14.4214 6.83504C14.9283 7.04498 15.3616 7.40052 15.6664 7.85669ZM12.0928 8.55115C11.9253 8.80176 11.836 9.0964 11.8359 9.39781C11.8364 9.80188 11.997 10.1893 12.2828 10.475C12.5685 10.7607 12.9559 10.9214 13.3599 10.9219C13.6613 10.9219 13.956 10.8325 14.2066 10.665C14.4572 10.4976 14.6525 10.2596 14.7679 9.98111C14.8832 9.70264 14.9134 9.39622 14.8546 9.1006C14.7958 8.80498 14.6507 8.53343 14.4376 8.3203C14.2245 8.10716 13.9529 7.96201 13.6573 7.9032C13.3617 7.84438 13.0553 7.87455 12.7768 7.98989C12.4983 8.10522 12.2603 8.30054 12.0928 8.55115ZM6.25 25H21.25C21.4158 25 21.5747 24.9342 21.6919 24.8169C21.8092 24.6997 21.875 24.5408 21.875 24.375C21.875 24.2092 21.8092 24.0503 21.6919 23.9331C21.5747 23.8158 21.4158 23.75 21.25 23.75H6.875V23.125H13.125C13.2908 23.125 13.4497 23.0592 13.5669 22.9419C13.6842 22.8247 13.75 22.6658 13.75 22.5V20.625C13.75 20.4592 13.6842 20.3003 13.5669 20.1831C13.4497 20.0658 13.2908 20 13.125 20C12.9592 20 12.8003 20.0658 12.6831 20.1831C12.5658 20.3003 12.5 20.4592 12.5 20.625V21.875H6.25C6.08424 21.875 5.92527 21.9408 5.80806 22.0581C5.69085 22.1753 5.625 22.3342 5.625 22.5V24.375C5.625 24.5408 5.69085 24.6997 5.80806 24.8169C5.92527 24.9342 6.08424 25 6.25 25ZM23.75 24.9219H23.125C22.9592 24.9219 22.8003 24.856 22.6831 24.7388C22.5658 24.6216 22.5 24.4626 22.5 24.2969C22.5 24.1311 22.5658 23.9721 22.6831 23.8549C22.8003 23.7377 22.9592 23.6719 23.125 23.6719H23.75C23.9158 23.6719 24.0747 23.7377 24.1919 23.8549C24.3092 23.9721 24.375 24.1311 24.375 24.2969C24.375 24.4626 24.3092 24.6216 24.1919 24.7388C24.0747 24.856 23.9158 24.9219 23.75 24.9219ZM23.125 28.75H18.125C17.9592 28.75 17.8003 28.8158 17.6831 28.9331C17.5658 29.0503 17.5 29.2092 17.5 29.375C17.5 29.5408 17.5658 29.6997 17.6831 29.8169C17.8003 29.9342 17.9592 30 18.125 30H23.125C23.2908 30 23.4497 29.9342 23.5669 29.8169C23.6842 29.6997 23.75 29.5408 23.75 29.375C23.75 29.2092 23.6842 29.0503 23.5669 28.9331C23.4497 28.8158 23.2908 28.75 23.125 28.75ZM25.625 30H25C24.8342 30 24.6753 29.9342 24.5581 29.8169C24.4408 29.6997 24.375 29.5408 24.375 29.375C24.375 29.2092 24.4408 29.0503 24.5581 28.9331C24.6753 28.8158 24.8342 28.75 25 28.75H25.625C25.7908 28.75 25.9497 28.8158 26.0669 28.9331C26.1842 29.0503 26.25 29.2092 26.25 29.375C26.25 29.5408 26.1842 29.6997 26.0669 29.8169C25.9497 29.9342 25.7908 30 25.625 30Z" fill="url(#paint0_linear_18_881)"/>
<defs>
<linearGradient id="paint0_linear_18_881" x1="19.9878" y1="4.13025" x2="19.9878" y2="35.6457" gradientUnits="userSpaceOnUse">
<stop stop-color="#419CD1"/>
<stop offset="1" stop-color="#1273AC"/>
</linearGradient>
</defs>
</svg>
