<svg width="40" height="40" viewBox="0 0 40 40" fill="none" xmlns="http://www.w3.org/2000/svg">
<path d="M33.1975 37.1889H4.80875C2.15722 37.1889 0 35.0317 0 32.3802V12.6276C0 9.97609 2.15722 7.81887 4.80875 7.81887H12.9062L26.4016 2.84759C26.5532 2.79183 26.7205 2.79997 26.8658 2.86982C27.011 2.93987 27.1218 3.06587 27.1726 3.21907L27.7468 4.95362L31.2872 3.83085C31.4429 3.78164 31.6122 3.79831 31.7551 3.87729C31.8982 3.95627 32.0023 4.09061 32.0434 4.24876L32.9695 7.81867H33.1975C35.8491 7.81867 38.0063 9.97589 38.0063 12.6274V17.5737C39.155 17.8954 40 18.9517 40 20.2018V24.8064C40 26.0563 39.155 27.1128 38.0063 27.4345V32.3804C38.0063 35.0317 35.8491 37.1889 33.1975 37.1889ZM4.80875 9.0097C2.81366 9.0097 1.19063 10.6327 1.19063 12.6278V32.3804C1.19063 34.3755 2.81366 35.9985 4.80875 35.9985H33.1975C35.1926 35.9985 36.8157 34.3755 36.8157 32.3804V27.5349H26.1901C24.7625 27.5349 23.6011 26.3734 23.6011 24.9459V20.0625C23.6011 18.6349 24.7625 17.4735 26.1901 17.4735H36.8157V12.6278C36.8157 10.6327 35.1926 9.0097 33.1975 9.0097H32.5217C32.5129 9.00989 32.5042 9.00989 32.4955 9.0097H28.2794C28.2703 9.00989 28.2612 9.00989 28.2519 9.0097H13.0265C13.0172 9.00989 13.0078 9.00989 12.9987 9.0097H4.80875ZM24.7917 24.8062C24.7917 25.6541 25.4817 26.3441 26.3296 26.3441H37.2717C38.1196 26.3441 38.8096 25.6541 38.8096 24.8062V20.2016C38.8096 19.3537 38.1196 18.6637 37.2717 18.6637H26.3296C25.4817 18.6637 24.7917 19.3537 24.7917 20.2016V24.8062ZM28.6956 7.81907H31.7394L31.0484 5.15583L28.1211 6.08412L28.6956 7.81907ZM16.3507 7.81907H27.4414L26.8043 5.89441C26.8025 5.88925 26.8007 5.88409 26.7991 5.87894C26.7991 5.87874 26.7989 5.87834 26.7989 5.87794L26.2359 4.17772L16.3507 7.81907ZM28.2656 24.7576C27.0229 24.7576 26.0121 23.7465 26.0121 22.5041C26.0121 21.2615 27.0229 20.2506 28.2656 20.2506C29.5082 20.2506 30.519 21.2615 30.519 22.5041C30.5192 23.7465 29.5082 24.7576 28.2656 24.7576ZM28.2656 21.4411C27.6794 21.4411 27.2027 21.9179 27.2027 22.5039C27.2027 23.0899 27.6796 23.5667 28.2656 23.5667C28.8515 23.5667 29.3284 23.0899 29.3284 22.5039C29.3284 21.9179 28.8517 21.4411 28.2656 21.4411Z" fill="url(#paint0_linear_18_867)"/>
<defs>
<linearGradient id="paint0_linear_18_867" x1="20" y1="2.81091" x2="20" y2="37.1889" gradientUnits="userSpaceOnUse">
<stop stop-color="#419CD1"/>
<stop offset="1" stop-color="#1273AC"/>
</linearGradient>
</defs>
</svg>
