<svg width="40" height="40" viewBox="0 0 40 40" fill="none" xmlns="http://www.w3.org/2000/svg">
<path fill-rule="evenodd" clip-rule="evenodd" d="M36.3569 11.25H39.375V18.925C39.375 22.3238 38.2356 25.545 36.2812 28.1562L38.3838 35.8656L35.2975 35.0938L32.9619 38.9869L30.8663 32.7C30.0513 33.1119 29.1969 33.4606 28.3013 33.7244L28.125 33.7762L27.9487 33.7238C27.0531 33.46 26.1987 33.1113 25.3837 32.6994L23.2881 38.9862L20.9525 35.0931L17.8663 35.865L19.9688 28.1556C18.3769 26.0294 17.3381 23.495 17.0031 20.7931L16.715 20.615C16.0544 20.9813 15.3569 21.2706 14.6325 21.4781L14.245 23.125H9.505L9.1175 21.4781C8.39313 21.2706 7.69562 20.9813 7.035 20.615L5.59562 21.5063L2.24375 18.1544L3.135 16.715C2.76875 16.0544 2.47938 15.3569 2.27188 14.6325L0.625 14.245V9.505L2.27188 9.1175C2.47938 8.39313 2.76875 7.69562 3.135 7.035L2.24375 5.59562L5.59562 2.24375L7.035 3.135C7.69562 2.76875 8.39313 2.47938 9.1175 2.27188L9.505 0.625H14.245L14.6325 2.27188C15.3569 2.47938 16.0544 2.76875 16.715 3.135L18.1544 2.24375L21.5063 5.59562L20.615 7.035C20.9813 7.69562 21.2706 8.39313 21.4781 9.1175L23.125 9.505V10.8744C24.7669 10.4906 26.3337 9.81812 27.7569 8.86875L28.1013 8.63937L28.4681 8.8525C30.8288 10.4269 33.5481 11.25 36.3569 11.25ZM16.4019 19.3525L16.7288 19.1537L16.8888 19.2531C16.8877 19.2053 16.8849 19.1577 16.8821 19.1101C16.8786 19.0489 16.875 18.9875 16.875 18.9256V17.4575C15.5125 18.6756 13.7375 19.375 11.875 19.375C7.73938 19.375 4.375 16.0106 4.375 11.875C4.375 7.73938 7.73938 4.375 11.875 4.375C15.8 4.375 19.0238 7.40625 19.3431 11.25H19.8931C20.5606 11.25 21.2219 11.2 21.875 11.1088V10.495L20.4538 10.16L20.3625 9.7875C20.1525 8.9275 19.8119 8.1075 19.3519 7.34812L19.1531 7.02125L19.9212 5.78L17.9694 3.82812L16.7281 4.59625L16.4013 4.3975C15.6419 3.9375 14.8219 3.59688 13.9619 3.38688L13.5894 3.29562L13.255 1.875H10.495L10.16 3.29562L9.7875 3.38688C8.9275 3.59688 8.1075 3.9375 7.34812 4.3975L7.02125 4.59625L5.78 3.82812L3.82812 5.78L4.59625 7.02187L4.3975 7.34875C3.9375 8.10813 3.59688 8.92813 3.38688 9.78813L3.29562 10.1606L1.875 10.495V13.255L3.29625 13.59L3.3875 13.9625C3.5975 14.8225 3.93813 15.6425 4.39813 16.4019L4.59687 16.7288L3.82875 17.97L5.78062 19.9219L7.02187 19.1537L7.34875 19.3525C8.10813 19.8125 8.92813 20.1531 9.78813 20.3631L10.1606 20.4544L10.495 21.875H13.255L13.59 20.4544L13.9625 20.3631C14.8225 20.1531 15.6425 19.8125 16.4019 19.3525ZM16.875 15.6119V11.25H18.0931C17.7787 8.09625 15.11 5.625 11.875 5.625C8.42875 5.625 5.625 8.42875 5.625 11.875C5.625 15.3212 8.42875 18.125 11.875 18.125C13.8444 18.125 15.6956 17.1856 16.875 15.6119ZM21.5475 33.6562L22.9619 36.0131L24.2731 32.0788C23.0331 31.3162 21.9156 30.3862 20.9456 29.3231L19.6337 34.1344L21.5475 33.6562ZM34.7025 33.6562L36.6162 34.1344L35.3044 29.3231C34.3344 30.3862 33.2169 31.3162 31.9769 32.0788L33.2881 36.0131L34.7025 33.6562ZM28.125 32.4725C34.0225 30.6531 38.125 25.1088 38.125 18.925V12.5H36.3569C33.43 12.5 30.5919 11.6788 28.1244 10.12C25.645 11.6819 22.8137 12.5 19.8931 12.5H18.125V18.925C18.125 25.1088 22.2275 30.6531 28.125 32.4725ZM11.875 8.125C9.80688 8.125 8.125 9.80688 8.125 11.875C8.125 13.9431 9.80688 15.625 11.875 15.625C13.9431 15.625 15.625 13.9431 15.625 11.875C15.625 9.80688 13.9431 8.125 11.875 8.125ZM11.875 14.375C10.4963 14.375 9.375 13.2537 9.375 11.875C9.375 10.4963 10.4963 9.375 11.875 9.375C13.2537 9.375 14.375 10.4963 14.375 11.875C14.375 13.2537 13.2537 14.375 11.875 14.375ZM26.6262 15.0325L27.0643 16.2031C26.6475 16.3593 26.2237 16.5025 25.8056 16.6287L25.4443 15.4325C25.8368 15.3137 26.2343 15.1793 26.6262 15.0325ZM23.125 17.245V18.925C23.125 19.0719 23.1287 19.2169 23.1363 19.3625L21.8875 19.4263C21.8787 19.26 21.875 19.0931 21.875 18.9256V16.1563L22.4194 16.0844C23.0212 16.005 23.6319 15.895 24.2344 15.755L24.5163 16.9731C24.0544 17.0794 23.5887 17.1706 23.125 17.245ZM28.1256 11.5806L28.4237 11.7424C30.8175 13.0387 33.525 13.7331 36.2537 13.7493L36.875 13.7531V18.9249C36.875 24.3481 33.4444 29.2343 28.3381 31.0831L28.125 31.1599L27.9119 31.0831C22.8056 29.2343 19.375 24.3481 19.375 18.9249V13.7531L19.9963 13.7493C22.7269 13.7331 25.435 13.0387 27.8275 11.7424L28.1256 11.5806ZM28.125 29.8281C32.6206 28.1012 35.625 23.7481 35.625 18.9249V14.9843C33.015 14.8774 30.4412 14.1962 28.1256 12.9987C25.8106 14.1962 23.2362 14.8774 20.625 14.9843V18.9249C20.625 23.7474 23.6294 28.1006 28.125 29.8281ZM25.625 19.7412L22.8662 22.5L26.875 26.5087L34.6337 18.75L31.875 15.9912L26.875 20.9912L25.625 19.7412ZM32.8662 18.75L26.875 24.7412L24.6337 22.5L25.625 21.5087L26.875 22.7587L31.875 17.7587L32.8662 18.75Z" fill="url(#paint0_linear_18_871)"/>
<defs>
<linearGradient id="paint0_linear_18_871" x1="20" y1="0.625" x2="20" y2="38.9869" gradientUnits="userSpaceOnUse">
<stop stop-color="#419CD1"/>
<stop offset="1" stop-color="#1273AC"/>
</linearGradient>
</defs>
</svg>
