<svg width="18" height="18" viewBox="0 0 18 18" fill="none" xmlns="http://www.w3.org/2000/svg">
<path d="M17.7801 16.7206L12.6614 11.6019C13.6529 10.3771 14.2498 8.82089 14.2498 7.12592C14.2498 3.19746 11.0534 0.000976562 7.12491 0.000976562C3.19645 0.000976562 0 3.19742 0 7.12588C0 11.0543 3.19648 14.2508 7.12494 14.2508C8.81991 14.2508 10.3762 13.6538 11.6009 12.6623L16.7196 17.781C16.8658 17.9273 17.0578 18.0008 17.2498 18.0008C17.4419 18.0008 17.6339 17.9273 17.7801 17.781C18.0733 17.4878 18.0733 17.0138 17.7801 16.7206ZM7.12494 12.7508C4.02296 12.7508 1.5 10.2279 1.5 7.12588C1.5 4.0239 4.02296 1.50094 7.12494 1.50094C10.2269 1.50094 12.7499 4.0239 12.7499 7.12588C12.7499 10.2279 10.2269 12.7508 7.12494 12.7508Z" fill="#1273AC"/>
</svg>
